<svg width="86" height="32" viewBox="0 0 86 32" fill="none" xmlns="http://www.w3.org/2000/svg">
<path d="M15.4773 19.5457C15.4447 21.0856 14.1285 22.4567 12.5204 22.4662H0.0110385C0.0110385 18.2845 -0.0139806 14.1028 0.011418 9.92155C0.0152088 9.70926 0.0227905 9.66757 0.0398493 9.54664C0.233182 8.15996 1.51827 7.00868 2.96827 6.99996H7.74927V8.42493C6.14954 8.42493 4.54981 8.41545 2.95045 8.42493C2.154 8.44047 1.44132 9.12737 1.43601 9.96098V21.0408C5.137 21.0408 8.83761 21.0632 12.5382 21.0408C13.332 21.0253 14.0348 20.3547 14.0523 19.526V14.8205H15.4776C15.4776 16.3955 15.4867 17.9706 15.4776 19.5453" fill="white"/>
<path fill-rule="evenodd" clip-rule="evenodd" d="M13.1155 8.42554H9.40238V7.00057H14.7649C14.7782 7.00057 14.7914 7.00133 14.8047 7.00171C14.9343 7.0127 14.97 7.02672 15.0375 7.05477C15.3002 7.16357 15.4677 7.37169 15.4776 7.71287V13.3627H14.0522V9.50328L9.90353 13.6057L8.90161 12.5924L13.1155 8.42554Z" fill="#00CCD7"/>
<path d="M20.5391 20.1158C21.2984 20.6632 22.5168 21.0339 23.7882 21.0339C26.4543 21.0339 28.2026 19.3739 28.2026 16.7609C28.2026 14.4125 26.7898 12.735 24.4239 12.735C23.4701 12.735 22.5167 13.1585 21.9519 13.6706V8.49727H20.5391V20.1158ZM24.1059 14.0592C25.6423 14.0592 26.7015 15.0835 26.7015 16.8667C26.7015 18.6503 25.4656 19.7094 23.8587 19.7094C23.1703 19.7094 22.5876 19.5858 21.9519 19.162V15.0835C22.3401 14.5888 23.1877 14.0592 24.1059 14.0592Z" fill="white"/>
<path d="M35.7953 18.8796C35.2831 19.3565 34.3824 19.7094 33.3585 19.7094C31.8047 19.7094 30.7099 18.8265 30.5863 17.3257H36.6956C36.7487 17.0786 36.7839 16.7609 36.7839 16.3724C36.7839 14.1828 35.1417 12.7351 33.0936 12.7351C30.4802 12.7351 28.9972 14.5713 28.9972 16.8845C28.9972 19.3917 30.6746 21.0339 33.2524 21.0339C34.3119 21.0339 35.4598 20.6984 36.2365 19.9922L35.7953 18.8796ZM33.0231 14.0592C34.4003 14.0592 35.2479 14.8716 35.3184 16.1779H30.498C30.6568 14.9599 31.575 14.0592 33.0231 14.0592Z" fill="white"/>
<path d="M42.0282 18.703C42.0282 19.427 41.3572 19.7977 40.6157 19.7977C39.8212 19.7977 38.7795 19.3212 38.32 18.7913L37.5255 19.7977C37.8966 20.363 39.1676 21.0339 40.4569 21.0339C42.046 21.0339 43.529 20.3099 43.529 18.6324C43.529 15.8424 39.2385 16.6373 39.2385 14.9599C39.2385 14.4299 39.715 13.9709 40.5096 13.9709C41.3398 13.9709 42.0282 14.3242 42.5051 14.748L43.1761 13.6706C42.6992 13.2116 41.7458 12.7351 40.4391 12.7351C38.8674 12.7351 37.7374 13.5823 37.7374 14.9773C37.7374 17.891 42.0282 17.0964 42.0282 18.703Z" fill="white"/>
<path d="M44.7121 17.8381C44.7121 19.8685 45.4183 20.9989 47.2019 20.9989C48.0848 20.9989 48.8085 20.6808 49.2323 20.3279L48.791 19.2331C48.5086 19.445 48.0848 19.6744 47.5374 19.6744C46.5309 19.6744 46.1246 18.9503 46.1246 17.6967V14.236H49.0382V12.9115H46.1246V10.7045H44.7121V17.8381Z" fill="white"/>
<path d="M60.7853 24.3892H62.1981V20.4869C62.763 20.8576 63.5928 21.0343 64.4404 21.0343C66.9302 21.0343 68.5724 19.1802 68.5724 16.7612C68.5724 14.4128 67.1596 12.7354 64.8995 12.7354C63.8047 12.7354 62.7451 13.2119 62.1981 13.8476V12.9117H60.7853V24.3892ZM64.4935 14.0595C66.1356 14.0595 67.0712 15.2074 67.0712 16.8139C67.0712 18.4914 66.0121 19.7098 64.3168 19.7098C63.5575 19.7098 62.9044 19.5687 62.1981 19.0919V15.1543C62.6924 14.5364 63.5575 14.0595 64.4935 14.0595Z" fill="white"/>
<path d="M75.7587 20.8573H77.1715V13.6354C76.3591 13.1232 75.1055 12.7351 73.834 12.7351C71.2385 12.7351 69.3669 14.5713 69.3669 16.8845C69.3669 19.3917 70.903 21.0339 73.3045 21.0339C74.2757 21.0339 75.1938 20.5923 75.7587 20.0275V20.8573ZM73.5338 19.7094C71.9625 19.7094 70.8677 18.6855 70.8677 16.955C70.8677 15.3659 72.033 14.0592 73.8166 14.0592C74.4698 14.0592 75.1407 14.218 75.7587 14.5713V18.6677C75.3174 19.1798 74.452 19.7094 73.5338 19.7094Z" fill="white"/>
<path d="M85.9999 20.7693V12.9116H84.5874V18.5266C84.0931 19.1623 83.2277 19.7097 82.3095 19.7097C80.8618 19.7097 80.2613 18.8268 80.2613 17.326V12.9116H78.8489V17.6441C78.8489 19.9747 80.0142 21.0342 81.7799 21.0342C83.0336 21.0342 84.04 20.3985 84.5874 19.7275V20.9281C84.5874 22.4998 83.6693 23.206 82.2743 23.206C81.2325 23.206 80.438 22.8175 79.9789 22.482L79.3254 23.612C79.7844 23.9301 80.6852 24.5302 82.3626 24.5302C84.3225 24.5302 85.9999 23.471 85.9999 20.7693Z" fill="white"/>
<path d="M58.4273 20.9678V19.8029H53.1956C53.2104 19.1391 53.7752 18.4753 54.5333 18.0284C54.9048 17.7979 55.3211 17.5405 55.7521 17.2562C56.6289 16.6735 57.4019 16.2129 57.8924 15.3596C58.1449 14.9396 58.2639 14.479 58.2639 13.9911C58.2639 13.1647 57.9515 12.5009 57.3423 11.9998C56.7328 11.4987 55.9303 11.2413 54.9644 11.2413C53.4928 11.2413 52.274 11.9862 51.6349 13.0567L52.7198 13.7205C53.1808 13.0025 53.9981 12.5009 54.8453 12.5009C55.9602 12.5009 56.7479 13.1515 56.7479 14.0859C56.7479 16.3213 51.5901 16.8498 51.5901 20.2365C51.5901 20.4397 51.6201 20.6835 51.6644 20.9678H58.4273Z" fill="#00CCD7"/>
</svg>
