<svg width="32" height="32" viewBox="0 0 32 32" fill="none" xmlns="http://www.w3.org/2000/svg">
<path fill-rule="evenodd" clip-rule="evenodd" d="M27.1093 2.9488H19.4346V0.000300407H30.5189C30.5465 0.000300407 30.574 0.001091 30.6016 0.00187969C30.8694 0.0247478 30.9419 0.0539179 31.0821 0.112273C31.6249 0.337019 31.9716 0.768375 31.9912 1.47416V13.1633H29.0457V5.17813L20.4705 13.6664L18.3994 11.5696L27.1093 2.9488Z" fill="white"/>
<path d="M31.9911 25.9579C31.9234 29.1437 29.2031 31.9803 25.8794 32H0.0231088C0.0231088 23.3485 -0.0288859 14.6961 0.0231088 6.04458C0.0309867 5.60534 0.0467427 5.51861 0.0821936 5.26863C0.481608 2.40055 3.13807 0.01824 6.13486 0.000102997H16.017V2.9486C12.7106 2.9486 9.4042 2.92889 6.09781 2.9486C4.4521 2.98094 2.9789 4.40197 2.96866 6.1266V29.0515C10.6174 29.0515 18.2669 29.098 25.9156 29.0515C27.5566 29.0191 29.0094 27.632 29.0456 25.9177V16.1818H31.9911C31.9911 19.4402 32.0108 22.6994 31.9911 25.9579Z" fill="white"/>
</svg>
